<mxfile host="app.diagrams.net" modified="2023-07-03T08:45:17.383Z" agent="Mozilla/5.0 (Windows NT 10.0; Win64; x64) AppleWebKit/537.36 (KHTML, like Gecko) Chrome/114.0.0.0 Safari/537.36" etag="eaX8EeVAf03Mt24fIFTA" version="21.5.2" type="github">
  <diagram name="Page-1" id="j4zijTuvgXV5CRUZQsbx">
    <mxGraphModel dx="3033" dy="1212" grid="1" gridSize="10" guides="1" tooltips="1" connect="1" arrows="1" fold="1" page="1" pageScale="1" pageWidth="827" pageHeight="1169" math="0" shadow="0">
      <root>
        <mxCell id="0" />
        <mxCell id="1" parent="0" />
        <mxCell id="_QUyTxZqofNG6Ew0M7h4-80" value="" style="rounded=1;whiteSpace=wrap;html=1;fillColor=#ffe6cc;strokeColor=#d79b00;opacity=60;movable=0;resizable=0;rotatable=0;deletable=0;editable=0;locked=1;connectable=0;" vertex="1" parent="1">
          <mxGeometry x="-810" y="570" width="2450" height="570" as="geometry" />
        </mxCell>
        <mxCell id="_QUyTxZqofNG6Ew0M7h4-75" value="" style="rounded=1;whiteSpace=wrap;html=1;fillColor=#d5e8d4;strokeColor=#82b366;opacity=70;movable=0;resizable=0;rotatable=0;deletable=0;editable=0;locked=1;connectable=0;" vertex="1" parent="1">
          <mxGeometry x="-820" y="20" width="1690" height="540" as="geometry" />
        </mxCell>
        <mxCell id="5SXSyARnowto5p6SUvKr-1" value="Database" style="swimlane;whiteSpace=wrap;html=1;fillColor=#d5e8d4;strokeColor=#82b366;opacity=90;" parent="1" vertex="1">
          <mxGeometry x="31" y="585" width="200" height="200" as="geometry" />
        </mxCell>
        <mxCell id="_QUyTxZqofNG6Ew0M7h4-5" value="MongoDB" style="text;html=1;align=center;verticalAlign=middle;resizable=0;points=[];autosize=1;strokeColor=none;fillColor=none;fontStyle=1" vertex="1" parent="5SXSyARnowto5p6SUvKr-1">
          <mxGeometry x="60" y="33" width="80" height="30" as="geometry" />
        </mxCell>
        <mxCell id="_QUyTxZqofNG6Ew0M7h4-10" value="Prompts" style="text;html=1;align=center;verticalAlign=middle;resizable=0;points=[];autosize=1;strokeColor=none;fillColor=none;" vertex="1" parent="5SXSyARnowto5p6SUvKr-1">
          <mxGeometry x="65" y="63" width="70" height="30" as="geometry" />
        </mxCell>
        <mxCell id="5SXSyARnowto5p6SUvKr-2" value="Frontend" style="swimlane;whiteSpace=wrap;html=1;fillColor=#d5e8d4;strokeColor=#82b366;opacity=90;" parent="1" vertex="1">
          <mxGeometry x="570" y="585" width="200" height="200" as="geometry" />
        </mxCell>
        <mxCell id="5SXSyARnowto5p6SUvKr-14" value="Qwik" style="text;html=1;align=center;verticalAlign=middle;resizable=0;points=[];autosize=1;strokeColor=none;fillColor=none;fontStyle=1" parent="5SXSyARnowto5p6SUvKr-2" vertex="1">
          <mxGeometry x="70" y="33" width="50" height="30" as="geometry" />
        </mxCell>
        <mxCell id="_QUyTxZqofNG6Ew0M7h4-28" value="auth.js" style="text;html=1;align=center;verticalAlign=middle;resizable=0;points=[];autosize=1;strokeColor=none;fillColor=none;" vertex="1" parent="5SXSyARnowto5p6SUvKr-2">
          <mxGeometry x="65" y="55" width="60" height="30" as="geometry" />
        </mxCell>
        <mxCell id="_QUyTxZqofNG6Ew0M7h4-11" value="" style="edgeStyle=orthogonalEdgeStyle;rounded=0;orthogonalLoop=1;jettySize=auto;html=1;entryX=0.5;entryY=0;entryDx=0;entryDy=0;exitX=0.5;exitY=1;exitDx=0;exitDy=0;" edge="1" parent="1" source="5SXSyARnowto5p6SUvKr-3" target="_QUyTxZqofNG6Ew0M7h4-6">
          <mxGeometry relative="1" as="geometry">
            <Array as="points">
              <mxPoint x="400" y="820" />
              <mxPoint x="620" y="820" />
            </Array>
          </mxGeometry>
        </mxCell>
        <mxCell id="5SXSyARnowto5p6SUvKr-3" value="Backend" style="swimlane;whiteSpace=wrap;html=1;fillColor=#d5e8d4;strokeColor=#82b366;opacity=90;" parent="1" vertex="1">
          <mxGeometry x="300" y="585" width="200" height="200" as="geometry" />
        </mxCell>
        <mxCell id="5SXSyARnowto5p6SUvKr-15" value="Axio" style="text;html=1;align=center;verticalAlign=middle;resizable=0;points=[];autosize=1;strokeColor=none;fillColor=none;" parent="5SXSyARnowto5p6SUvKr-3" vertex="1">
          <mxGeometry x="75" y="123" width="50" height="30" as="geometry" />
        </mxCell>
        <mxCell id="_QUyTxZqofNG6Ew0M7h4-3" value="NodeJs" style="text;html=1;align=center;verticalAlign=middle;resizable=0;points=[];autosize=1;strokeColor=none;fillColor=none;fontStyle=5" vertex="1" parent="5SXSyARnowto5p6SUvKr-3">
          <mxGeometry x="65" y="33" width="70" height="30" as="geometry" />
        </mxCell>
        <mxCell id="_QUyTxZqofNG6Ew0M7h4-4" value="Express" style="text;html=1;align=center;verticalAlign=middle;resizable=0;points=[];autosize=1;strokeColor=none;fillColor=none;" vertex="1" parent="5SXSyARnowto5p6SUvKr-3">
          <mxGeometry x="65" y="93" width="70" height="30" as="geometry" />
        </mxCell>
        <mxCell id="_QUyTxZqofNG6Ew0M7h4-12" value="Qwik City" style="text;html=1;align=center;verticalAlign=middle;resizable=0;points=[];autosize=1;strokeColor=none;fillColor=none;" vertex="1" parent="5SXSyARnowto5p6SUvKr-3">
          <mxGeometry x="65" y="63" width="70" height="30" as="geometry" />
        </mxCell>
        <mxCell id="5SXSyARnowto5p6SUvKr-4" value="" style="swimlane;startSize=0;swimlaneFillColor=none;gradientColor=none;fillColor=default;fontSize=12;" parent="1" vertex="1" collapsed="1">
          <mxGeometry x="1080" y="630" width="20" height="20" as="geometry">
            <mxRectangle x="1040" y="550" width="770" height="510" as="alternateBounds" />
          </mxGeometry>
        </mxCell>
        <mxCell id="5SXSyARnowto5p6SUvKr-6" value="" style="image;aspect=fixed;perimeter=ellipsePerimeter;html=1;align=center;shadow=0;dashed=0;spacingTop=3;image=img/lib/active_directory/laptop_client.svg;" parent="5SXSyARnowto5p6SUvKr-4" vertex="1">
          <mxGeometry x="700" y="220" width="45" height="50" as="geometry" />
        </mxCell>
        <mxCell id="5SXSyARnowto5p6SUvKr-9" value="VPC" style="points=[[0,0],[0.25,0],[0.5,0],[0.75,0],[1,0],[1,0.25],[1,0.5],[1,0.75],[1,1],[0.75,1],[0.5,1],[0.25,1],[0,1],[0,0.75],[0,0.5],[0,0.25]];outlineConnect=0;gradientColor=none;html=1;whiteSpace=wrap;fontSize=12;fontStyle=0;container=1;pointerEvents=0;collapsible=0;recursiveResize=0;shape=mxgraph.aws4.group;grIcon=mxgraph.aws4.group_vpc;strokeColor=#248814;fillColor=none;verticalAlign=top;align=left;spacingLeft=30;fontColor=#AAB7B8;dashed=0;" parent="5SXSyARnowto5p6SUvKr-4" vertex="1">
          <mxGeometry x="10" y="40" width="620" height="450" as="geometry" />
        </mxCell>
        <mxCell id="5SXSyARnowto5p6SUvKr-7" value="" style="sketch=0;outlineConnect=0;fontColor=#232F3E;gradientColor=none;fillColor=#3F8624;strokeColor=none;dashed=0;verticalLabelPosition=bottom;verticalAlign=top;align=center;html=1;fontSize=12;fontStyle=0;aspect=fixed;pointerEvents=1;shape=mxgraph.aws4.bucket_with_objects;" parent="5SXSyARnowto5p6SUvKr-9" vertex="1">
          <mxGeometry x="500" y="40" width="75" height="78" as="geometry" />
        </mxCell>
        <mxCell id="5SXSyARnowto5p6SUvKr-12" value="Private subnet" style="points=[[0,0],[0.25,0],[0.5,0],[0.75,0],[1,0],[1,0.25],[1,0.5],[1,0.75],[1,1],[0.75,1],[0.5,1],[0.25,1],[0,1],[0,0.75],[0,0.5],[0,0.25]];outlineConnect=0;gradientColor=none;html=1;whiteSpace=wrap;fontSize=12;fontStyle=0;container=1;pointerEvents=0;collapsible=0;recursiveResize=0;shape=mxgraph.aws4.group;grIcon=mxgraph.aws4.group_security_group;grStroke=0;strokeColor=#147EBA;fillColor=#E6F2F8;verticalAlign=top;align=left;spacingLeft=30;fontColor=#147EBA;dashed=0;" parent="5SXSyARnowto5p6SUvKr-9" vertex="1">
          <mxGeometry x="25" y="250" width="385" height="180" as="geometry" />
        </mxCell>
        <mxCell id="5SXSyARnowto5p6SUvKr-10" value="" style="sketch=0;points=[[0,0,0],[0.25,0,0],[0.5,0,0],[0.75,0,0],[1,0,0],[0,1,0],[0.25,1,0],[0.5,1,0],[0.75,1,0],[1,1,0],[0,0.25,0],[0,0.5,0],[0,0.75,0],[1,0.25,0],[1,0.5,0],[1,0.75,0]];outlineConnect=0;fontColor=#232F3E;gradientColor=#4D72F3;gradientDirection=north;fillColor=#3334B9;strokeColor=#ffffff;dashed=0;verticalLabelPosition=bottom;verticalAlign=top;align=center;html=1;fontSize=12;fontStyle=0;aspect=fixed;shape=mxgraph.aws4.resourceIcon;resIcon=mxgraph.aws4.documentdb_with_mongodb_compatibility;" parent="5SXSyARnowto5p6SUvKr-12" vertex="1">
          <mxGeometry x="35" y="40" width="60" height="60" as="geometry" />
        </mxCell>
        <mxCell id="5SXSyARnowto5p6SUvKr-13" value="Public subnet" style="points=[[0,0],[0.25,0],[0.5,0],[0.75,0],[1,0],[1,0.25],[1,0.5],[1,0.75],[1,1],[0.75,1],[0.5,1],[0.25,1],[0,1],[0,0.75],[0,0.5],[0,0.25]];outlineConnect=0;gradientColor=none;html=1;whiteSpace=wrap;fontSize=12;fontStyle=0;container=1;pointerEvents=0;collapsible=0;recursiveResize=0;shape=mxgraph.aws4.group;grIcon=mxgraph.aws4.group_security_group;grStroke=0;strokeColor=#248814;fillColor=#E9F3E6;verticalAlign=top;align=left;spacingLeft=30;fontColor=#248814;dashed=0;" parent="5SXSyARnowto5p6SUvKr-9" vertex="1">
          <mxGeometry x="20" y="40" width="390" height="180" as="geometry" />
        </mxCell>
        <mxCell id="5SXSyARnowto5p6SUvKr-8" value="EC2 instance contents" style="points=[[0,0],[0.25,0],[0.5,0],[0.75,0],[1,0],[1,0.25],[1,0.5],[1,0.75],[1,1],[0.75,1],[0.5,1],[0.25,1],[0,1],[0,0.75],[0,0.5],[0,0.25]];outlineConnect=0;gradientColor=none;html=1;whiteSpace=wrap;fontSize=12;fontStyle=0;container=1;pointerEvents=0;collapsible=0;recursiveResize=0;shape=mxgraph.aws4.group;grIcon=mxgraph.aws4.group_ec2_instance_contents;strokeColor=#D86613;fillColor=none;verticalAlign=top;align=left;spacingLeft=30;fontColor=#D86613;dashed=0;" parent="5SXSyARnowto5p6SUvKr-13" vertex="1">
          <mxGeometry x="30" y="30" width="350" height="140" as="geometry" />
        </mxCell>
        <mxCell id="5SXSyARnowto5p6SUvKr-5" value="" style="outlineConnect=0;dashed=0;verticalLabelPosition=bottom;verticalAlign=top;align=center;html=1;shape=mxgraph.aws3.android;fillColor=#8CC64F;gradientColor=none;" parent="5SXSyARnowto5p6SUvKr-8" vertex="1">
          <mxGeometry x="170" y="40" width="50" height="60" as="geometry" />
        </mxCell>
        <mxCell id="_QUyTxZqofNG6Ew0M7h4-6" value="Qwik City" style="swimlane;whiteSpace=wrap;html=1;fillColor=#d5e8d4;strokeColor=#82b366;opacity=90;" vertex="1" parent="1">
          <mxGeometry x="520" y="890" width="200" height="200" as="geometry" />
        </mxCell>
        <mxCell id="_QUyTxZqofNG6Ew0M7h4-14" value="Express" style="swimlane;whiteSpace=wrap;html=1;fillColor=#d5e8d4;strokeColor=#82b366;opacity=90;" vertex="1" parent="1">
          <mxGeometry x="300" y="890" width="200" height="200" as="geometry" />
        </mxCell>
        <mxCell id="_QUyTxZqofNG6Ew0M7h4-15" value="Axio" style="swimlane;whiteSpace=wrap;html=1;fillColor=#d5e8d4;strokeColor=#82b366;opacity=90;" vertex="1" parent="1">
          <mxGeometry x="80" y="890" width="200" height="200" as="geometry" />
        </mxCell>
        <mxCell id="_QUyTxZqofNG6Ew0M7h4-16" value="" style="edgeStyle=orthogonalEdgeStyle;rounded=0;orthogonalLoop=1;jettySize=auto;html=1;exitX=0.5;exitY=1;exitDx=0;exitDy=0;entryX=0.5;entryY=0;entryDx=0;entryDy=0;" edge="1" parent="1" source="5SXSyARnowto5p6SUvKr-3" target="_QUyTxZqofNG6Ew0M7h4-14">
          <mxGeometry relative="1" as="geometry">
            <mxPoint x="590" y="810" as="sourcePoint" />
            <mxPoint x="800" y="885" as="targetPoint" />
          </mxGeometry>
        </mxCell>
        <mxCell id="_QUyTxZqofNG6Ew0M7h4-17" value="" style="edgeStyle=orthogonalEdgeStyle;rounded=0;orthogonalLoop=1;jettySize=auto;html=1;exitX=0.5;exitY=1;exitDx=0;exitDy=0;entryX=0.5;entryY=0;entryDx=0;entryDy=0;" edge="1" parent="1" source="5SXSyARnowto5p6SUvKr-3" target="_QUyTxZqofNG6Ew0M7h4-15">
          <mxGeometry relative="1" as="geometry">
            <mxPoint x="179.5" y="790" as="sourcePoint" />
            <mxPoint x="260" y="850" as="targetPoint" />
            <Array as="points">
              <mxPoint x="400" y="820" />
              <mxPoint x="180" y="820" />
            </Array>
          </mxGeometry>
        </mxCell>
        <mxCell id="_QUyTxZqofNG6Ew0M7h4-18" value="Qwik" style="swimlane;whiteSpace=wrap;html=1;fillColor=#d5e8d4;strokeColor=#82b366;opacity=90;" vertex="1" parent="1">
          <mxGeometry x="740" y="890" width="200" height="200" as="geometry" />
        </mxCell>
        <mxCell id="_QUyTxZqofNG6Ew0M7h4-20" value="MongoDB" style="swimlane;whiteSpace=wrap;html=1;fillColor=#d5e8d4;strokeColor=#82b366;opacity=90;" vertex="1" parent="1">
          <mxGeometry x="-140" y="890" width="200" height="200" as="geometry" />
        </mxCell>
        <mxCell id="_QUyTxZqofNG6Ew0M7h4-23" value="OpenAI API" style="swimlane;whiteSpace=wrap;html=1;fillColor=#d5e8d4;strokeColor=#82b366;opacity=90;" vertex="1" parent="1">
          <mxGeometry x="-360" y="890" width="200" height="200" as="geometry" />
        </mxCell>
        <mxCell id="_QUyTxZqofNG6Ew0M7h4-26" value="OAuth API" style="swimlane;whiteSpace=wrap;html=1;fillColor=#d5e8d4;strokeColor=#82b366;opacity=90;" vertex="1" parent="1">
          <mxGeometry x="-580" y="890" width="200" height="200" as="geometry" />
        </mxCell>
        <mxCell id="_QUyTxZqofNG6Ew0M7h4-27" value="needs auth.js as interface" style="text;html=1;align=center;verticalAlign=middle;resizable=0;points=[];autosize=1;strokeColor=none;fillColor=none;" vertex="1" parent="_QUyTxZqofNG6Ew0M7h4-26">
          <mxGeometry x="20" y="30" width="160" height="30" as="geometry" />
        </mxCell>
        <mxCell id="_QUyTxZqofNG6Ew0M7h4-2" value="Deployment Chart" style="text;html=1;align=center;verticalAlign=middle;resizable=0;points=[];autosize=1;strokeColor=default;fillColor=none;fontStyle=1;fontSize=14;" vertex="1" parent="1">
          <mxGeometry x="1080" y="600" width="140" height="30" as="geometry" />
        </mxCell>
        <mxCell id="_QUyTxZqofNG6Ew0M7h4-29" value="Services" style="swimlane;whiteSpace=wrap;html=1;fillColor=#d5e8d4;strokeColor=#82b366;opacity=90;" vertex="1" parent="1">
          <mxGeometry x="-240" y="585" width="200" height="200" as="geometry" />
        </mxCell>
        <mxCell id="_QUyTxZqofNG6Ew0M7h4-30" value="OpenAi ChatGPT" style="text;html=1;align=center;verticalAlign=middle;resizable=0;points=[];autosize=1;strokeColor=none;fillColor=none;" vertex="1" parent="_QUyTxZqofNG6Ew0M7h4-29">
          <mxGeometry x="40" y="45" width="120" height="30" as="geometry" />
        </mxCell>
        <mxCell id="_QUyTxZqofNG6Ew0M7h4-31" value="OAuth" style="text;html=1;align=center;verticalAlign=middle;resizable=0;points=[];autosize=1;strokeColor=none;fillColor=none;" vertex="1" parent="_QUyTxZqofNG6Ew0M7h4-29">
          <mxGeometry x="70" y="85" width="60" height="30" as="geometry" />
        </mxCell>
        <mxCell id="_QUyTxZqofNG6Ew0M7h4-32" value="" style="edgeStyle=orthogonalEdgeStyle;rounded=0;orthogonalLoop=1;jettySize=auto;html=1;exitX=0.5;exitY=1;exitDx=0;exitDy=0;entryX=0.5;entryY=0;entryDx=0;entryDy=0;" edge="1" parent="1" source="5SXSyARnowto5p6SUvKr-2" target="_QUyTxZqofNG6Ew0M7h4-18">
          <mxGeometry relative="1" as="geometry">
            <mxPoint x="850" y="750" as="sourcePoint" />
            <mxPoint x="860" y="810" as="targetPoint" />
            <Array as="points">
              <mxPoint x="670" y="820" />
              <mxPoint x="840" y="820" />
            </Array>
          </mxGeometry>
        </mxCell>
        <mxCell id="_QUyTxZqofNG6Ew0M7h4-34" value="" style="edgeStyle=orthogonalEdgeStyle;rounded=0;orthogonalLoop=1;jettySize=auto;html=1;entryX=0.5;entryY=0;entryDx=0;entryDy=0;exitX=0.5;exitY=1;exitDx=0;exitDy=0;elbow=vertical;" edge="1" parent="1" source="_QUyTxZqofNG6Ew0M7h4-29" target="_QUyTxZqofNG6Ew0M7h4-26">
          <mxGeometry relative="1" as="geometry">
            <mxPoint x="-240" y="855" as="sourcePoint" />
            <mxPoint x="-20" y="1070" as="targetPoint" />
            <Array as="points">
              <mxPoint x="-140" y="820" />
              <mxPoint x="-480" y="820" />
            </Array>
          </mxGeometry>
        </mxCell>
        <mxCell id="_QUyTxZqofNG6Ew0M7h4-35" value="" style="edgeStyle=orthogonalEdgeStyle;rounded=0;orthogonalLoop=1;jettySize=auto;html=1;entryX=0.5;entryY=0;entryDx=0;entryDy=0;exitX=0.5;exitY=1;exitDx=0;exitDy=0;" edge="1" parent="1" source="_QUyTxZqofNG6Ew0M7h4-29" target="_QUyTxZqofNG6Ew0M7h4-23">
          <mxGeometry relative="1" as="geometry">
            <mxPoint x="-230" y="820" as="sourcePoint" />
            <mxPoint x="-10" y="1035" as="targetPoint" />
            <Array as="points">
              <mxPoint x="-140" y="820" />
              <mxPoint x="-260" y="820" />
            </Array>
          </mxGeometry>
        </mxCell>
        <mxCell id="_QUyTxZqofNG6Ew0M7h4-36" value="" style="edgeStyle=orthogonalEdgeStyle;rounded=0;orthogonalLoop=1;jettySize=auto;html=1;entryX=0.5;entryY=0;entryDx=0;entryDy=0;exitX=0.5;exitY=1;exitDx=0;exitDy=0;" edge="1" parent="1" source="5SXSyARnowto5p6SUvKr-1" target="_QUyTxZqofNG6Ew0M7h4-20">
          <mxGeometry relative="1" as="geometry">
            <mxPoint x="-10" y="855" as="sourcePoint" />
            <mxPoint x="210" y="1070" as="targetPoint" />
            <Array as="points">
              <mxPoint x="131" y="820" />
              <mxPoint x="-40" y="820" />
            </Array>
          </mxGeometry>
        </mxCell>
        <mxCell id="_QUyTxZqofNG6Ew0M7h4-38" value="Landing Page" style="swimlane;whiteSpace=wrap;html=1;fillColor=#fa6800;strokeColor=#C73500;fontColor=#000000;opacity=40;" vertex="1" parent="1">
          <mxGeometry x="-420" y="60" width="270" height="204" as="geometry" />
        </mxCell>
        <mxCell id="_QUyTxZqofNG6Ew0M7h4-44" value="Logo" style="text;html=1;align=left;verticalAlign=middle;resizable=0;points=[];autosize=1;strokeColor=none;fillColor=none;fontStyle=5" vertex="1" parent="_QUyTxZqofNG6Ew0M7h4-38">
          <mxGeometry x="120" y="40" width="50" height="30" as="geometry" />
        </mxCell>
        <mxCell id="_QUyTxZqofNG6Ew0M7h4-45" value="Navigation" style="text;html=1;align=left;verticalAlign=middle;resizable=0;points=[];autosize=1;strokeColor=none;fillColor=none;" vertex="1" parent="_QUyTxZqofNG6Ew0M7h4-38">
          <mxGeometry x="1" y="22" width="80" height="30" as="geometry" />
        </mxCell>
        <mxCell id="_QUyTxZqofNG6Ew0M7h4-46" value="Chatbot:" style="text;html=1;align=left;verticalAlign=middle;resizable=0;points=[];autosize=1;strokeColor=none;fillColor=none;fontStyle=1" vertex="1" parent="_QUyTxZqofNG6Ew0M7h4-38">
          <mxGeometry x="1" y="70" width="70" height="30" as="geometry" />
        </mxCell>
        <mxCell id="_QUyTxZqofNG6Ew0M7h4-49" value="Welcome" style="text;html=1;align=left;verticalAlign=middle;resizable=0;points=[];autosize=1;strokeColor=none;fillColor=none;fontSize=10;" vertex="1" parent="_QUyTxZqofNG6Ew0M7h4-38">
          <mxGeometry x="67" y="70" width="70" height="30" as="geometry" />
        </mxCell>
        <mxCell id="_QUyTxZqofNG6Ew0M7h4-53" value="Personalized Chat" style="text;html=1;align=left;verticalAlign=middle;resizable=0;points=[];autosize=1;strokeColor=none;fillColor=none;fontSize=10;" vertex="1" parent="_QUyTxZqofNG6Ew0M7h4-38">
          <mxGeometry x="67" y="85" width="110" height="30" as="geometry" />
        </mxCell>
        <mxCell id="_QUyTxZqofNG6Ew0M7h4-55" value="Abstracts:" style="text;html=1;align=left;verticalAlign=middle;resizable=0;points=[];autosize=1;strokeColor=none;fillColor=none;fontStyle=1" vertex="1" parent="_QUyTxZqofNG6Ew0M7h4-38">
          <mxGeometry x="1" y="128" width="80" height="30" as="geometry" />
        </mxCell>
        <mxCell id="_QUyTxZqofNG6Ew0M7h4-57" value="Origins of Brik" style="text;html=1;align=left;verticalAlign=middle;resizable=0;points=[];autosize=1;strokeColor=none;fillColor=none;fontSize=10;" vertex="1" parent="_QUyTxZqofNG6Ew0M7h4-38">
          <mxGeometry x="67" y="127" width="90" height="30" as="geometry" />
        </mxCell>
        <mxCell id="_QUyTxZqofNG6Ew0M7h4-59" value="Malsouka" style="text;html=1;align=left;verticalAlign=middle;resizable=0;points=[];autosize=1;strokeColor=none;fillColor=none;fontSize=10;" vertex="1" parent="_QUyTxZqofNG6Ew0M7h4-38">
          <mxGeometry x="67" y="158" width="70" height="30" as="geometry" />
        </mxCell>
        <mxCell id="_QUyTxZqofNG6Ew0M7h4-60" value="Recipes" style="text;html=1;align=left;verticalAlign=middle;resizable=0;points=[];autosize=1;strokeColor=none;fillColor=none;fontSize=10;" vertex="1" parent="_QUyTxZqofNG6Ew0M7h4-38">
          <mxGeometry x="67" y="174" width="60" height="30" as="geometry" />
        </mxCell>
        <mxCell id="_QUyTxZqofNG6Ew0M7h4-58" value="Tunisian Brik" style="text;html=1;align=left;verticalAlign=middle;resizable=0;points=[];autosize=1;strokeColor=none;fillColor=none;fontSize=10;" vertex="1" parent="_QUyTxZqofNG6Ew0M7h4-38">
          <mxGeometry x="67" y="142" width="80" height="30" as="geometry" />
        </mxCell>
        <mxCell id="_QUyTxZqofNG6Ew0M7h4-61" value="Login" style="text;html=1;align=center;verticalAlign=middle;resizable=0;points=[];autosize=1;strokeColor=none;fillColor=none;" vertex="1" parent="_QUyTxZqofNG6Ew0M7h4-38">
          <mxGeometry x="220" y="22" width="50" height="30" as="geometry" />
        </mxCell>
        <mxCell id="_QUyTxZqofNG6Ew0M7h4-40" value="About Brik" style="swimlane;whiteSpace=wrap;html=1;fillColor=#fa6800;strokeColor=#C73500;fontColor=#000000;opacity=40;" vertex="1" parent="1">
          <mxGeometry x="-123" y="60" width="200" height="200" as="geometry" />
        </mxCell>
        <mxCell id="_QUyTxZqofNG6Ew0M7h4-63" value="Origins of Brik" style="text;html=1;align=left;verticalAlign=middle;resizable=0;points=[];autosize=1;strokeColor=none;fillColor=none;fontSize=10;fontStyle=5" vertex="1" parent="_QUyTxZqofNG6Ew0M7h4-40">
          <mxGeometry x="8" y="49" width="90" height="30" as="geometry" />
        </mxCell>
        <mxCell id="_QUyTxZqofNG6Ew0M7h4-64" value="Brik in tunisian Culture" style="text;html=1;align=left;verticalAlign=middle;resizable=0;points=[];autosize=1;strokeColor=none;fillColor=none;fontSize=10;" vertex="1" parent="_QUyTxZqofNG6Ew0M7h4-40">
          <mxGeometry x="39" y="124.5" width="120" height="30" as="geometry" />
        </mxCell>
        <mxCell id="_QUyTxZqofNG6Ew0M7h4-65" value="Tunisian Brik" style="text;html=1;align=left;verticalAlign=middle;resizable=0;points=[];autosize=1;strokeColor=none;fillColor=none;fontSize=10;fontStyle=5" vertex="1" parent="_QUyTxZqofNG6Ew0M7h4-40">
          <mxGeometry x="9" y="106.5" width="90" height="30" as="geometry" />
        </mxCell>
        <mxCell id="_QUyTxZqofNG6Ew0M7h4-66" value="Where you find brik" style="text;html=1;align=left;verticalAlign=middle;resizable=0;points=[];autosize=1;strokeColor=none;fillColor=none;fontSize=10;" vertex="1" parent="_QUyTxZqofNG6Ew0M7h4-40">
          <mxGeometry x="43" y="66" width="110" height="30" as="geometry" />
        </mxCell>
        <mxCell id="_QUyTxZqofNG6Ew0M7h4-68" value="Börek, Booreka &amp;amp; Filo" style="text;html=1;align=left;verticalAlign=middle;resizable=0;points=[];autosize=1;strokeColor=none;fillColor=none;fontSize=10;" vertex="1" parent="_QUyTxZqofNG6Ew0M7h4-40">
          <mxGeometry x="43" y="83" width="120" height="30" as="geometry" />
        </mxCell>
        <mxCell id="_QUyTxZqofNG6Ew0M7h4-69" value="Styles" style="text;html=1;align=left;verticalAlign=middle;resizable=0;points=[];autosize=1;strokeColor=none;fillColor=none;fontSize=10;" vertex="1" parent="_QUyTxZqofNG6Ew0M7h4-40">
          <mxGeometry x="39" y="166" width="50" height="30" as="geometry" />
        </mxCell>
        <mxCell id="_QUyTxZqofNG6Ew0M7h4-70" value="Malsouka" style="text;html=1;align=left;verticalAlign=middle;resizable=0;points=[];autosize=1;strokeColor=none;fillColor=none;fontSize=10;" vertex="1" parent="_QUyTxZqofNG6Ew0M7h4-40">
          <mxGeometry x="39" y="144.5" width="70" height="30" as="geometry" />
        </mxCell>
        <mxCell id="_QUyTxZqofNG6Ew0M7h4-41" value="Recipes" style="swimlane;whiteSpace=wrap;html=1;fillColor=#fa6800;strokeColor=#C73500;fontColor=#000000;opacity=40;" vertex="1" parent="1">
          <mxGeometry x="100" y="60" width="200" height="200" as="geometry" />
        </mxCell>
        <mxCell id="_QUyTxZqofNG6Ew0M7h4-42" value="About Brik.tn" style="swimlane;whiteSpace=wrap;html=1;fillColor=#fa6800;strokeColor=#C73500;fontColor=#000000;opacity=40;" vertex="1" parent="1">
          <mxGeometry x="320" y="60" width="200" height="200" as="geometry" />
        </mxCell>
        <mxCell id="_QUyTxZqofNG6Ew0M7h4-43" value="Contact" style="swimlane;whiteSpace=wrap;html=1;fillColor=#fa6800;strokeColor=#C73500;fontColor=#000000;opacity=40;" vertex="1" parent="1">
          <mxGeometry x="540" y="60" width="200" height="200" as="geometry" />
        </mxCell>
        <mxCell id="_QUyTxZqofNG6Ew0M7h4-71" value="Login" style="swimlane;whiteSpace=wrap;html=1;fillColor=#fa6800;strokeColor=#C73500;fontColor=#000000;opacity=40;" vertex="1" parent="1">
          <mxGeometry x="-123" y="280" width="200" height="200" as="geometry" />
        </mxCell>
        <mxCell id="_QUyTxZqofNG6Ew0M7h4-83" value="Google" style="text;html=1;align=left;verticalAlign=middle;resizable=0;points=[];autosize=1;strokeColor=none;fillColor=none;fontStyle=0;fontSize=10;" vertex="1" parent="_QUyTxZqofNG6Ew0M7h4-71">
          <mxGeometry x="27" y="60" width="60" height="30" as="geometry" />
        </mxCell>
        <mxCell id="_QUyTxZqofNG6Ew0M7h4-85" value="Email" style="text;html=1;align=left;verticalAlign=middle;resizable=0;points=[];autosize=1;strokeColor=none;fillColor=none;fontStyle=0;fontSize=10;" vertex="1" parent="_QUyTxZqofNG6Ew0M7h4-71">
          <mxGeometry x="27" y="120" width="50" height="30" as="geometry" />
        </mxCell>
        <mxCell id="_QUyTxZqofNG6Ew0M7h4-86" value="Facebook" style="text;html=1;align=left;verticalAlign=middle;resizable=0;points=[];autosize=1;strokeColor=none;fillColor=none;fontStyle=0;fontSize=10;" vertex="1" parent="_QUyTxZqofNG6Ew0M7h4-71">
          <mxGeometry x="27" y="80" width="70" height="30" as="geometry" />
        </mxCell>
        <mxCell id="_QUyTxZqofNG6Ew0M7h4-72" value="&lt;h1&gt;Routes &amp;amp; Pages of Brik.tn&lt;/h1&gt;&lt;p&gt;Accessibility will be in focus&lt;/p&gt;" style="text;html=1;strokeColor=none;fillColor=none;spacing=5;spacingTop=-20;whiteSpace=wrap;overflow=hidden;rounded=0;" vertex="1" parent="1">
          <mxGeometry x="-800" y="60" width="330" height="120" as="geometry" />
        </mxCell>
        <mxCell id="_QUyTxZqofNG6Ew0M7h4-73" value="&lt;h1&gt;Stack-Plan of Brik.tn&lt;/h1&gt;&lt;p&gt;Frameworks, Services &amp;amp; Deployment&lt;/p&gt;" style="text;html=1;strokeColor=none;fillColor=none;spacing=5;spacingTop=-20;whiteSpace=wrap;overflow=hidden;rounded=0;" vertex="1" parent="1">
          <mxGeometry x="-780" y="600" width="330" height="120" as="geometry" />
        </mxCell>
        <mxCell id="_QUyTxZqofNG6Ew0M7h4-81" value="OAuth" style="text;html=1;align=center;verticalAlign=middle;resizable=0;points=[];autosize=1;strokeColor=none;fillColor=none;fontStyle=5" vertex="1" parent="1">
          <mxGeometry x="-53" y="310" width="60" height="30" as="geometry" />
        </mxCell>
        <mxCell id="_QUyTxZqofNG6Ew0M7h4-84" value="Github" style="text;html=1;align=left;verticalAlign=middle;resizable=0;points=[];autosize=1;strokeColor=none;fillColor=none;fontStyle=0;fontSize=10;" vertex="1" parent="1">
          <mxGeometry x="-96" y="380" width="50" height="30" as="geometry" />
        </mxCell>
      </root>
    </mxGraphModel>
  </diagram>
</mxfile>
